<svg width="103" height="29" viewBox="0 0 103 29" fill="none" xmlns="http://www.w3.org/2000/svg">
<path d="M93.9191 23.1828C92.2124 23.1828 90.6978 22.8521 89.3751 22.1908C88.0738 21.5294 87.0498 20.5374 86.3031 19.2148C85.5564 17.8921 85.1831 16.2388 85.1831 14.2548C85.1831 12.2708 85.5564 10.6281 86.3031 9.32678C87.0498 8.00411 88.0844 7.02278 89.4071 6.38278C90.7298 5.72144 92.2444 5.39078 93.9511 5.39078C95.6578 5.39078 97.1724 5.72144 98.4951 6.38278C99.8178 7.04411 100.852 8.03611 101.599 9.35878C102.346 10.6601 102.719 12.3028 102.719 14.2868C102.719 16.3134 102.335 17.9881 101.567 19.3108C100.799 20.6334 99.7431 21.6148 98.3991 22.2548C97.0764 22.8734 95.5831 23.1828 93.9191 23.1828ZM94.0791 19.4388C94.8471 19.4388 95.4871 19.2681 95.9991 18.9268C96.5111 18.5641 96.8951 18.0201 97.1511 17.2948C97.4071 16.5694 97.5351 15.6734 97.5351 14.6068C97.5351 13.4761 97.3964 12.5268 97.1191 11.7588C96.8418 10.9694 96.4258 10.3721 95.8711 9.96678C95.3378 9.54011 94.6444 9.32678 93.7911 9.32678C93.0658 9.32678 92.4364 9.50811 91.9031 9.87078C91.3911 10.2121 91.0071 10.7454 90.7511 11.4708C90.4951 12.1961 90.3671 13.1028 90.3671 14.1908C90.3671 15.9401 90.6871 17.2521 91.3271 18.1268C91.9884 19.0014 92.9058 19.4388 94.0791 19.4388Z" fill="#0F172A"/>
<path d="M69.1221 22.7348V18.4468L77.5061 10.4148V9.93478H69.3141V5.83878H84.0341V10.0948L75.5861 18.1588V18.6068H84.1301V22.7348H69.1221Z" fill="#0F172A"/>
<path d="M61.8623 22.7348V5.83878H67.0143V22.7348H61.8623Z" fill="#0F172A"/>
<path d="M47.951 22.7188L42.415 5.8548H48.143L51.343 18.6868H51.887L55.151 5.8548H60.623L55.055 22.7188H47.951Z" fill="#0F172A"/>
<path d="M9.28642 0.428603C9.28642 0.191892 9.09442 -0.00103296 8.85796 0.0098882C7.78478 0.0594543 6.7272 0.294931 5.73266 0.706885C4.60598 1.17357 3.58225 1.8576 2.71993 2.71993C1.85761 3.58225 1.17357 4.60598 0.706887 5.73266C0.2402 6.85934 1.10244e-07 8.0669 0 9.28641C-1.10244e-07 10.5059 0.2402 11.7135 0.706886 12.8402C1.17357 13.9668 1.8576 14.9906 2.71993 15.8529C3.58225 16.7152 4.60598 17.3993 5.73266 17.8659C6.7272 18.2779 7.78478 18.5134 8.85795 18.5629C9.09441 18.5739 9.28641 18.3809 9.28641 18.1442L9.28642 0.428603Z" fill="url(#paint0_linear_73_1003)"/>
<path d="M28.145 9.28642C28.3817 9.28642 28.5746 9.09442 28.5637 8.85796C28.5141 7.78478 28.2786 6.7272 27.8667 5.73266C27.4 4.60598 26.716 3.58225 25.8537 2.71993C24.9913 1.85761 23.9676 1.17357 22.8409 0.706887C21.7142 0.240201 20.5067 1.98147e-07 19.2872 0C18.0677 -1.98147e-07 16.8601 0.2402 15.7334 0.706886C14.6067 1.17357 13.583 1.8576 12.7207 2.71993C11.8584 3.58225 11.1743 4.60598 10.7076 5.73266C10.2957 6.7272 10.0602 7.78477 10.0106 8.85795C9.99972 9.09441 10.1926 9.28641 10.4294 9.28641L28.145 9.28642Z" fill="url(#paint1_linear_73_1003)"/>
<path d="M19.2872 28.145C19.2872 28.3817 19.4792 28.5746 19.7156 28.5637C20.7888 28.5141 21.8464 28.2786 22.8409 27.8667C23.9676 27.4 24.9913 26.716 25.8537 25.8537C26.716 24.9913 27.4 23.9676 27.8667 22.8409C28.3334 21.7142 28.5736 20.5067 28.5736 19.2872C28.5736 18.0677 28.3334 16.8601 27.8667 15.7334C27.4 14.6067 26.716 13.583 25.8537 12.7207C24.9913 11.8584 23.9676 11.1743 22.8409 10.7076C21.8464 10.2957 20.7888 10.0602 19.7156 10.0106C19.4792 9.99972 19.2872 10.1926 19.2872 10.4294L19.2872 28.145Z" fill="url(#paint2_linear_73_1003)"/>
<path d="M0.428605 19.2872C0.191894 19.2872 -0.00103062 19.4792 0.0098905 19.7156C0.0594564 20.7888 0.294933 21.8464 0.706887 22.8409C1.17357 23.9676 1.8576 24.9913 2.71993 25.8536C3.58225 26.716 4.60598 27.4 5.73266 27.8667C6.85934 28.3334 8.0669 28.5736 9.28641 28.5736C10.5059 28.5736 11.7135 28.3334 12.8402 27.8667C13.9669 27.4 14.9906 26.716 15.8529 25.8537C16.7152 24.9913 17.3993 23.9676 17.8659 22.8409C18.2779 21.8464 18.5134 20.7888 18.5629 19.7156C18.5739 19.4792 18.3809 19.2872 18.1442 19.2872L0.428605 19.2872Z" fill="url(#paint3_linear_73_1003)"/>
<defs>
<linearGradient id="paint0_linear_73_1003" x1="6.15091" y1="6.54388" x2="21.6168" y2="22.0098" gradientUnits="userSpaceOnUse">
<stop stop-color="#FFF853"/>
<stop offset="1" stop-color="#111111"/>
</linearGradient>
<linearGradient id="paint1_linear_73_1003" x1="6.15091" y1="6.54388" x2="21.6168" y2="22.0098" gradientUnits="userSpaceOnUse">
<stop stop-color="#FFF853"/>
<stop offset="1" stop-color="#111111"/>
</linearGradient>
<linearGradient id="paint2_linear_73_1003" x1="6.15091" y1="6.54388" x2="21.6168" y2="22.0098" gradientUnits="userSpaceOnUse">
<stop stop-color="#FFF853"/>
<stop offset="1" stop-color="#111111"/>
</linearGradient>
<linearGradient id="paint3_linear_73_1003" x1="6.15091" y1="6.54388" x2="21.6168" y2="22.0098" gradientUnits="userSpaceOnUse">
<stop stop-color="#FFF853"/>
<stop offset="1" stop-color="#111111"/>
</linearGradient>
</defs>
</svg>
